<?xml version="1.0" encoding="utf-8"?>
<!-- Generator: Adobe Illustrator 27.5.0, SVG Export Plug-In . SVG Version: 6.00 Build 0)  -->
<svg version="1.1" xmlns="http://www.w3.org/2000/svg" xmlns:xlink="http://www.w3.org/1999/xlink" x="0px" y="0px"
	 viewBox="0 0 500 500" style="enable-background:new 0 0 500 500;" xml:space="preserve">
<g id="BACKGROUND">
	<rect style="fill:#3DBBE3;" width="500" height="500"/>
</g>
<g id="OBJECTS">
	<ellipse style="fill:#26A2C9;" cx="250" cy="432.156" rx="126.825" ry="29.321"/>
	<g>
		<path style="fill:#FFFFFF;" d="M88.202,182.029c0,0,27.139-34.973,137.832-46.773l9.568,32.03c0,0-76.908,0.004-112.36,36.55
			L88.202,182.029z"/>
		<path style="fill:#FFFFFF;" d="M413.063,202.091c0,0-28.404-48.263-139.097-60.064l-9.568,32.03c0,0,79.277,14.206,114.729,50.752
			L413.063,202.091z"/>
		<g>
			<path style="fill:#FFFFFF;" d="M101.123,229.036c0,0-22.303,4.501-18.089-33.392c2.998-26.957,32.208-26.297,66.167-28.357
				l-20.305,30.108L101.123,229.036z"/>
			<path style="fill:#B3B3B3;" d="M103.294,185.561c-8.3,0-15.092,6.791-15.092,15.092v20.055c0,1.564,0.242,3.074,0.689,4.496
				c5.389,5.209,12.232,3.832,12.232,3.832l17.262-19.667v-8.715C118.386,192.353,111.594,185.561,103.294,185.561z"/>
			<path style="fill:#FFCD97;" d="M106.804,191.404l-7.941,9.75c-1.55,1.903-4.375,2.192-6.278,0.642l-0.894-0.729
				c-1.903-1.55-2.192-4.375-0.642-6.278l7.941-9.75c1.55-1.903,4.375-2.192,6.278-0.642l0.894,0.729
				C108.064,186.676,108.353,189.501,106.804,191.404z"/>
		</g>
		<g>
			<path style="fill:#FFFFFF;" d="M398.877,247.311c0,0,22.303,4.501,18.089-33.392c-2.998-26.957-32.208-26.296-66.167-28.357
				l20.305,30.108L398.877,247.311z"/>
			<path style="fill:#B3B3B3;" d="M396.706,203.836c8.301,0,15.092,6.791,15.092,15.092v20.055c0,1.564-0.242,3.074-0.689,4.496
				c-5.389,5.209-12.232,3.832-12.232,3.832l-17.262-19.667v-8.715C381.614,210.628,388.406,203.836,396.706,203.836z"/>
			<path style="fill:#FFCD97;" d="M391.558,208.608l7.941,9.75c1.55,1.903,4.375,2.192,6.277,0.642l0.895-0.729
				c1.903-1.55,2.192-4.375,0.642-6.277l-7.941-9.75c-1.55-1.903-4.375-2.192-6.277-0.642l-0.895,0.729
				C390.297,203.88,390.009,206.705,391.558,208.608z"/>
		</g>
		<g>
			<g>
				<path style="fill:#DEB385;" d="M204.706,135.101L204.706,135.101c-6.37,0-11.581-5.212-11.581-11.581v-8.475
					c0-6.37,5.212-11.581,11.581-11.581l0,0c6.37,0,11.581,5.212,11.581,11.581v8.475
					C216.287,129.889,211.075,135.101,204.706,135.101z"/>
				<path style="fill:#B88F63;" d="M205.156,127.477h-0.9c-4.013,0-7.297-3.284-7.297-7.297v-4.182c0-4.013,3.283-7.297,7.297-7.297
					h0.9c4.013,0,7.297,3.284,7.297,7.297v4.182C212.452,124.193,209.169,127.477,205.156,127.477z"/>
				<path style="fill:#DEB385;" d="M207.02,121.839h-4.628c-1.406,0-2.557-1.15-2.557-2.557l0,0c0-1.406,1.15-2.556,2.557-2.556
					h4.628c1.406,0,2.557,1.15,2.557,2.556l0,0C209.576,120.688,208.426,121.839,207.02,121.839z"/>
			</g>
			<g>
				<path style="fill:#DEB385;" d="M295.697,135.101L295.697,135.101c6.37,0,11.581-5.212,11.581-11.581v-8.475
					c0-6.37-5.212-11.581-11.581-11.581l0,0c-6.37,0-11.581,5.212-11.581,11.581v8.475
					C284.116,129.889,289.328,135.101,295.697,135.101z"/>
				<path style="fill:#B88F63;" d="M295.248,127.477h0.9c4.013,0,7.297-3.284,7.297-7.297v-4.182c0-4.013-3.284-7.297-7.297-7.297
					h-0.9c-4.013,0-7.297,3.284-7.297,7.297v4.182C287.951,124.193,291.235,127.477,295.248,127.477z"/>
				<path style="fill:#DEB385;" d="M293.384,121.839h4.628c1.406,0,2.556-1.15,2.556-2.557l0,0c0-1.406-1.15-2.556-2.556-2.556
					h-4.628c-1.406,0-2.557,1.15-2.557,2.556l0,0C290.827,120.688,291.978,121.839,293.384,121.839z"/>
			</g>
			<path style="fill:#FFCD97;" d="M250.202,168.426L250.202,168.426c-25.023,0-45.496-20.473-45.496-45.496V96.746
				c0-21.621,17.69-39.311,39.311-39.311h12.37c21.621,0,39.311,17.69,39.311,39.311v26.184
				C295.697,147.953,275.224,168.426,250.202,168.426z"/>
			<path style="fill:#DEB385;" d="M250.202,126.188L250.202,126.188c-4.718,0-8.578-3.86-8.578-8.578V104.55
				c0-4.718,3.86-8.578,8.578-8.578l0,0c4.718,0,8.578,3.86,8.578,8.578v13.061C258.779,122.328,254.919,126.188,250.202,126.188z"
				/>
			<path style="fill:none;stroke:#9E7F5D;stroke-width:2;stroke-linecap:round;stroke-linejoin:round;stroke-miterlimit:10;" d="
				M233.384,100.773c0,4.059-3.291,7.35-7.35,7.35c-4.059,0-7.35-3.291-7.35-7.35"/>
			<path style="fill:none;stroke:#9E7F5D;stroke-width:2;stroke-linecap:round;stroke-linejoin:round;stroke-miterlimit:10;" d="
				M281.958,100.773c0,4.059-3.291,7.35-7.35,7.35c-4.059,0-7.35-3.291-7.35-7.35"/>
			<path style="fill:#634A2E;" d="M232.842,90.867l-12.031,3.252c-1.612,0.436-3.287-0.527-3.723-2.139l0,0
				c-0.436-1.612,0.527-3.287,2.139-3.723l12.031-3.252c1.612-0.436,3.287,0.527,3.723,2.139l0,0
				C235.416,88.756,234.454,90.431,232.842,90.867z"/>
			<path style="fill:#634A2E;" d="M267.8,90.867l12.031,3.252c1.612,0.436,3.287-0.527,3.723-2.139l0,0
				c0.436-1.612-0.527-3.287-2.139-3.723l-12.031-3.252c-1.612-0.436-3.287,0.527-3.723,2.139l0,0
				C265.226,88.756,266.189,90.431,267.8,90.867z"/>
			<path style="fill:#634A2E;" d="M204.673,108.701c0,0-9.28-34.84,4.695-42.993c13.975-8.154,7.219,11.773,7.219,11.773
				S211.969,99.478,204.673,108.701z"/>
			<path style="fill:#634A2E;" d="M295.579,108.701c0,0,4.386-31.367-5.823-44.953c-9.72-12.935-6.091,13.733-6.091,13.733
				S288.282,99.478,295.579,108.701z"/>
			<path style="fill:#87653F;" d="M306.338,38.001c0,0,4.336,34-29.148,40.667c-36.55,7.277-72.484,5.787-71.002-10.06
				c1.121-11.991,14.199-20.043,44.003-19.607C295.697,49.667,306.338,38.001,306.338,38.001z"/>
		</g>
		<path style="fill:#FFFFFF;" d="M202.718,256.771H304.11c0.364-2.531,0.563-5.115,0.563-7.743v-59.151
			c0-29.971-24.522-54.493-54.492-54.493h0c-29.971,0-54.492,24.522-54.492,54.493v59.151c0,2.794,0.214,5.539,0.625,8.223
			C198.377,256.909,200.513,256.771,202.718,256.771z"/>
		<path style="fill:#3B445A;" d="M250.181,250.255L250.181,250.255c-14.854,0-44.087-5.439-54.98-14.507
			c-3.108,43.419-7.354,109.093-8.52,158.286h23.968c0,0,7.978-121.747,39.533-121.747c31.555,0,39.533,121.747,39.533,121.747
			h23.967c-1.166-49.193-5.412-114.867-8.52-158.286C294.269,244.816,265.035,250.255,250.181,250.255z"/>
		<path style="fill:#282E3D;" d="M191.605,353.838c1.179-0.055,2.366-0.083,3.56-0.083c0.787,0,1.569,0.015,2.35,0.039
			c0.232,0.007,0.463,0.019,0.695,0.029c0.561,0.022,1.121,0.05,1.678,0.084c0.245,0.015,0.488,0.033,0.732,0.051
			c0.57,0.041,1.138,0.089,1.704,0.143c0.203,0.019,0.406,0.038,0.609,0.059c0.703,0.073,1.404,0.155,2.101,0.247
			c0.054,0.007,0.109,0.013,0.164,0.02c1.614,0.217,3.208,0.488,4.784,0.806c0.023,0.005,0.046,0.01,0.069,0.015
			c0.755,0.153,1.506,0.319,2.252,0.495c0.051,0.012,0.103,0.024,0.154,0.037c0.759,0.181,1.513,0.373,2.262,0.577l0.001,0
			c5.065-35.757,15.585-84.068,35.463-84.068c19.879,0,30.399,48.315,35.464,84.073c0.749-0.204,1.504-0.396,2.263-0.577
			c0.053-0.013,0.106-0.025,0.159-0.038c0.741-0.175,1.486-0.34,2.236-0.492c0.03-0.006,0.06-0.013,0.09-0.019
			c1.575-0.319,3.169-0.589,4.782-0.806c0.053-0.007,0.106-0.013,0.159-0.02c0.699-0.093,1.401-0.175,2.107-0.248
			c0.203-0.021,0.408-0.04,0.612-0.059c0.565-0.054,1.132-0.102,1.701-0.143c0.246-0.018,0.491-0.035,0.738-0.051
			c0.556-0.035,1.115-0.062,1.675-0.084c0.233-0.009,0.465-0.021,0.698-0.029c0.781-0.024,1.564-0.039,2.351-0.039
			c1.191,0,2.376,0.028,3.552,0.083c1.151,0.054,2.293,0.136,3.428,0.241c0.025,0.002,0.05,0.003,0.075,0.005
			c-1.834-41.104-4.788-85.921-7.108-118.335c-10.893,9.068-40.126,14.507-54.98,14.507c-14.854,0-44.087-5.439-54.98-14.507
			c-2.32,32.415-5.274,77.231-7.108,118.336C189.256,353.976,190.427,353.893,191.605,353.838z"/>
		<g>
			<g>
				<rect x="101.123" y="131.649" style="fill:#3C455B;" width="298.116" height="216.795"/>
				<rect x="105.68" y="134.999" style="fill:#3091B0;" width="289.002" height="210.093"/>
				<rect x="122.605" y="145.757" style="fill:#FFFFFF;" width="255.152" height="199.335"/>
				<rect x="122.605" y="145.757" style="fill:#FFFFFF;" width="255.152" height="25.173"/>
				<rect x="122.605" y="170.93" style="fill:#D8E3E3;" width="255.152" height="40.726"/>
				<rect x="169.808" y="301.234" style="fill:#D8E3E3;" width="160.747" height="43.859"/>
				<rect x="169.808" y="301.234" style="fill:#B3BDBD;" width="160.747" height="17.902"/>
				<rect x="101.123" y="131.649" style="fill:#3C455B;" width="298.116" height="14.109"/>
				<path style="fill:#161C2B;" d="M389.349,143.445h-4.486c-1.374,0-2.499-1.124-2.499-2.499v-4.486
					c0-1.374,1.124-2.499,2.499-2.499h4.486c1.374,0,2.499,1.124,2.499,2.499v4.486C391.847,142.32,390.723,143.445,389.349,143.445
					z"/>
				<path style="fill:#161C2B;" d="M375.639,143.445h-4.486c-1.374,0-2.499-1.124-2.499-2.499v-4.486
					c0-1.374,1.124-2.499,2.499-2.499h4.486c1.374,0,2.499,1.124,2.499,2.499v4.486C378.138,142.32,377.013,143.445,375.639,143.445
					z"/>
				<path style="fill:#161C2B;" d="M361.93,143.445h-4.486c-1.374,0-2.499-1.124-2.499-2.499v-4.486
					c0-1.374,1.125-2.499,2.499-2.499h4.486c1.374,0,2.499,1.124,2.499,2.499v4.486C364.428,142.32,363.304,143.445,361.93,143.445z
					"/>
				<path style="fill:#B5D649;" d="M361.339,142.196h-3.305c-1.013,0-1.841-0.828-1.841-1.841v-3.305
					c0-1.013,0.828-1.841,1.841-1.841h3.305c1.013,0,1.841,0.829,1.841,1.841v3.305C363.18,141.368,362.352,142.196,361.339,142.196
					z"/>
				<path style="fill:#EDD328;" d="M375.049,142.196h-3.305c-1.013,0-1.841-0.828-1.841-1.841v-3.305
					c0-1.013,0.828-1.841,1.841-1.841h3.305c1.013,0,1.841,0.829,1.841,1.841v3.305C376.89,141.368,376.061,142.196,375.049,142.196
					z"/>
				<path style="fill:#ED565B;" d="M388.758,142.196h-3.305c-1.013,0-1.841-0.828-1.841-1.841v-3.305
					c0-1.013,0.829-1.841,1.841-1.841h3.305c1.013,0,1.841,0.829,1.841,1.841v3.305
					C390.599,141.368,389.771,142.196,388.758,142.196z"/>
				<path style="fill:#FFFFFF;" d="M385.181,140.628L385.181,140.628c-0.138-0.138-0.138-0.365,0-0.503l3.347-3.347
					c0.138-0.138,0.365-0.138,0.503,0l0,0c0.138,0.138,0.138,0.365,0,0.503l-3.347,3.347
					C385.545,140.766,385.319,140.766,385.181,140.628z"/>
				<path style="fill:#FFFFFF;" d="M385.181,136.778L385.181,136.778c0.138-0.138,0.365-0.138,0.503,0l3.347,3.347
					c0.138,0.138,0.138,0.365,0,0.503l0,0c-0.138,0.138-0.365,0.138-0.503,0l-3.347-3.347
					C385.042,137.142,385.042,136.916,385.181,136.778z"/>
				<path style="fill:#FFFFFF;" d="M371.091,140.554v-0.057c0-0.18,0.147-0.327,0.327-0.327h3.957c0.18,0,0.327,0.147,0.327,0.327
					v0.057c0,0.18-0.147,0.327-0.327,0.327h-3.957C371.238,140.881,371.091,140.734,371.091,140.554z"/>
				<g>
					<rect x="122.605" y="156.82" style="fill:#C3CDCD;" width="255.152" height="14.109"/>
					<rect x="122.605" y="169.611" style="fill:#949C9C;" width="255.152" height="1.319"/>
					<rect x="324.684" y="156.82" style="fill:#3DBBE3;" width="53.073" height="14.109"/>
					<rect x="324.684" y="169.611" style="fill:#3091B0;" width="53.073" height="1.319"/>
					<g>
						<path style="fill:#FFFFFF;" d="M334.622,164.435c-0.176,0.176-0.37,0.324-0.574,0.448l0.427,0.427
							c0.281,0.281,0.741,0.281,1.022,0c0.281-0.281,0.281-0.741,0-1.022l-0.427-0.427
							C334.945,164.065,334.798,164.258,334.622,164.435z"/>
						<path style="fill:#FFFFFF;" d="M335.776,165.589c-0.126,0.126-0.289,0.193-0.455,0.205l2.362,2.362
							c0.182,0.181,0.479,0.181,0.66,0c0.181-0.182,0.181-0.479,0-0.66l-2.362-2.362C335.968,165.3,335.902,165.462,335.776,165.589
							z"/>
						<path style="fill:#FFFFFF;" d="M329.936,159.749c-1.202,1.202-1.202,3.151,0,4.353c1.202,1.202,3.151,1.202,4.353,0
							c1.202-1.202,1.202-3.151,0-4.353C333.087,158.547,331.138,158.547,329.936,159.749z M333.723,163.536
							c-0.89,0.89-2.332,0.89-3.221,0c-0.89-0.89-0.89-2.332,0-3.221c0.89-0.89,2.332-0.89,3.221,0
							C334.613,161.205,334.613,162.647,333.723,163.536z"/>
					</g>
					
						<text transform="matrix(1 0 0 1 342.1945 165.9354)" style="fill:#FFFFFF; font-family:'Comfortaa-Thin'; font-size:7.7781px;">SEARCH</text>
				</g>
				<text transform="matrix(1 0 0 1 210.8097 200.9531)" style="fill:#FFFFFF; font-family:'Comfortaa'; font-size:26.4838px;">ERROR!</text>
				
					<text transform="matrix(1 0 0 1 186.1442 313.8573)" style="fill:#FFFFFF; font-family:'Comfortaa-Thin'; font-size:11.0331px;">SORRY, PAGE NOT FOUND</text>
				<g>
					<path style="fill:#B3BDBD;" d="M192.002,221.67l-16.182,38.856h6.589v-13.081h20.446v13.081h7.752v15.988h-7.752v13.178
						h-20.446v-13.178h-28.972V261.98l17.442-40.31H192.002z"/>
					<path style="fill:#B3BDBD;" d="M328.322,221.67l-16.182,38.856h6.589v-13.081h20.445v13.081h7.752v15.988h-7.752v13.178
						h-20.445v-13.178h-28.972V261.98l17.441-40.31H328.322z"/>
					<path style="fill:#C3CDCD;" d="M250.181,221.67c-18.784,0-34.011,15.227-34.011,34.011s15.227,34.011,34.011,34.011
						s34.011-15.227,34.011-34.011S268.965,221.67,250.181,221.67z"/>
					<path style="fill:#9DA6A6;" d="M260.95,257.251l1.737-1.737l0,0l3.846-3.846c2.999-2.999,2.999-7.907,0-10.906l0,0
						c-2.999-2.999-7.907-2.999-10.906,0l-3.846,3.846l-1.737,1.737l-5.583-5.583c-2.999-2.999-7.907-2.999-10.906,0
						c-2.999,2.999-2.999,7.907,0,10.906l5.583,5.583l-1.737,1.737h0l-3.846,3.846c-2.999,2.999-2.999,7.907,0,10.906
						c2.999,2.999,7.907,2.999,10.906,0l3.846-3.846l0,0l1.737-1.737l5.583,5.583c2.999,2.999,7.907,2.999,10.906,0l0,0
						c2.999-2.999,2.999-7.907,0-10.906L260.95,257.251z"/>
					<g>
						<path style="fill:#F1535C;" d="M234.273,271.451L234.273,271.451c-2.868-2.868-2.868-7.562,0-10.431l21.11-21.109
							c2.868-2.868,7.562-2.868,10.431,0l0,0c2.868,2.868,2.868,7.562,0,10.431l-21.11,21.109
							C241.836,274.32,237.142,274.32,234.273,271.451z"/>
						
							<rect x="240.318" y="248.305" transform="matrix(0.7071 -0.7071 0.7071 0.7071 -107.5579 251.6947)" style="fill:#B53037;" width="19.45" height="14.751"/>
						<path style="fill:#F1535C;" d="M234.273,239.911L234.273,239.911c2.868-2.868,7.562-2.868,10.431,0l21.11,21.109
							c2.868,2.868,2.868,7.562,0,10.431l0,0c-2.868,2.868-7.562,2.868-10.431,0l-21.11-21.109
							C231.405,247.473,231.405,242.779,234.273,239.911z"/>
					</g>
				</g>
			</g>
			<g>
				<path style="fill:#FFFFFF;" d="M197.211,188.107c-1.76,0-3.186,1.426-3.186,3.186c0,1.76,1.426,3.186,3.186,3.186
					c1.76,0,3.186-1.426,3.186-3.186C200.397,189.533,198.971,188.107,197.211,188.107z"/>
				<path style="fill:#FFFFFF;" d="M303.152,188.107c-1.76,0-3.186,1.426-3.186,3.186c0,1.76,1.427,3.186,3.186,3.186
					s3.186-1.426,3.186-3.186C306.338,189.533,304.911,188.107,303.152,188.107z"/>
			</g>
		</g>
		<path style="fill:#161C2B;" d="M187.657,392.528c0,0-4.693,17.921-33.095,24.321c-3.793,0.855-7.246,2.944-9.457,6.143
			c-1.946,2.815-3.441,6.711-2.546,11.631c0.79,4.344,5.193,7.044,9.482,5.994c12.346-3.021,40.074-9.346,61.817-10.921
			c0,0,2.591-24.629-3.21-35.66L187.657,392.528z"/>
		<path style="fill:#161C2B;" d="M313.007,392.528c0,0,4.694,17.921,33.095,24.321c3.793,0.855,7.246,2.944,9.457,6.143
			c1.946,2.815,3.441,6.711,2.546,11.631c-0.79,4.344-5.193,7.044-9.482,5.994c-12.346-3.021-40.074-9.346-61.817-10.921
			c0,0-2.592-24.629,3.21-35.66L313.007,392.528z"/>
		<path style="fill:#5D657A;" d="M209.433,399.265h-22.368c-3.705,0-6.737-3.031-6.737-6.736v0c0-3.705,3.032-6.737,6.737-6.737
			h22.368c3.705,0,6.737,3.031,6.737,6.737v0C216.17,396.233,213.139,399.265,209.433,399.265z"/>
		<path style="fill:#5D657A;" d="M313.459,399.265h-22.368c-3.705,0-6.737-3.031-6.737-6.736v0c0-3.705,3.031-6.737,6.737-6.737
			h22.368c3.705,0,6.737,3.031,6.737,6.737v0C320.196,396.233,317.164,399.265,313.459,399.265z"/>
		<path style="fill:#495066;" d="M209.433,392.528h-22.368c-2.479,0-4.651-1.361-5.82-3.368c-0.579,0.993-0.916,2.142-0.916,3.368
			c0,3.705,3.031,6.737,6.736,6.737h22.368c3.705,0,6.737-3.031,6.737-6.737c0-1.226-0.337-2.375-0.916-3.368
			C214.084,391.168,211.912,392.528,209.433,392.528z"/>
		<path style="fill:#495066;" d="M313.459,392.528h-22.368c-2.479,0-4.651-1.361-5.82-3.368c-0.579,0.993-0.916,2.142-0.916,3.368
			c0,3.705,3.031,6.737,6.737,6.737h22.368c3.705,0,6.737-3.031,6.737-6.737c0-1.226-0.337-2.375-0.916-3.368
			C318.11,391.168,315.938,392.528,313.459,392.528z"/>
		<path style="fill:#FFCD97;" d="M399.239,251.862L399.239,251.862c-8.301,0-15.092-6.791-15.092-15.092v-14.141
			c0-8.301,6.791-15.092,15.092-15.092l0,0c8.3,0,15.092,6.791,15.092,15.092v14.141
			C414.331,245.071,407.54,251.862,399.239,251.862z"/>
		<path style="fill:#FFCD97;" d="M363.145,218.782h32.089c2.771,0,5.039-2.268,5.039-5.039l0,0c0-2.771-2.267-5.039-5.039-5.039
			h-32.089c-2.771,0-5.039,2.268-5.039,5.039l0,0C358.106,216.514,360.374,218.782,363.145,218.782z"/>
		<path style="fill:#FFCD97;" d="M360.952,229.738h31.528c2.617,0,4.759-2.141,4.759-4.759v-0.56c0-2.617-2.141-4.759-4.759-4.759
			h-31.528c-2.617,0-4.759,2.142-4.759,4.759v0.56C356.193,227.596,358.335,229.738,360.952,229.738z"/>
		<path style="fill:#FFCD97;" d="M364.726,240.454H392.2c2.771,0,5.039-2.268,5.039-5.039l0,0c0-2.771-2.267-5.039-5.039-5.039
			h-27.474c-2.771,0-5.039,2.268-5.039,5.039l0,0C359.687,238.186,361.954,240.454,364.726,240.454z"/>
		<path style="fill:#FFCD97;" d="M371.584,251.015h24.876c2.771,0,5.039-2.267,5.039-5.039l0,0c0-2.771-2.267-5.039-5.039-5.039
			h-24.876c-2.771,0-5.039,2.267-5.039,5.039l0,0C366.545,248.748,368.813,251.015,371.584,251.015z"/>
		<path style="fill:#FFCD97;" d="M101.123,233.728L101.123,233.728c-8.3,0-15.092-6.791-15.092-15.092v-13.145
			c0-8.301,6.791-15.092,15.092-15.092l0,0c8.3,0,15.092,6.791,15.092,15.092v13.145
			C116.215,226.937,109.424,233.728,101.123,233.728z"/>
		<path style="fill:#FFCD97;" d="M135.908,201.41h-32.089c-2.771,0-5.039-2.268-5.039-5.039l0,0c0-2.771,2.268-5.039,5.039-5.039
			h32.089c2.771,0,5.039,2.268,5.039,5.039l0,0C140.946,199.143,138.679,201.41,135.908,201.41z"/>
		<path style="fill:#FFCD97;" d="M138.1,212.366h-31.528c-2.617,0-4.759-2.142-4.759-4.759v-0.56c0-2.617,2.141-4.759,4.759-4.759
			H138.1c2.617,0,4.759,2.142,4.759,4.759v0.56C142.859,210.224,140.718,212.366,138.1,212.366z"/>
		<path style="fill:#FFCD97;" d="M134.327,223.082h-27.474c-2.771,0-5.039-2.268-5.039-5.039l0,0c0-2.771,2.268-5.039,5.039-5.039
			h27.474c2.771,0,5.039,2.268,5.039,5.039l0,0C139.366,220.814,137.098,223.082,134.327,223.082z"/>
		<path style="fill:#FFCD97;" d="M127.468,233.643h-24.876c-2.771,0-5.039-2.267-5.039-5.039l0,0c0-2.771,2.267-5.039,5.039-5.039
			h24.876c2.771,0,5.039,2.267,5.039,5.039l0,0C132.507,231.376,130.24,233.643,127.468,233.643z"/>
	</g>
</g>
<g id="DESIGNED_BY_FREEPIK">
	<g id="XMLID_76_">
		<g id="XMLID_929_">
			<path id="XMLID_958_" style="fill:#1485A8;" d="M181.087,478.134c-0.246,0-0.435,0.085-0.567,0.255
				c-0.133,0.17-0.199,0.421-0.199,0.753v2.393c-0.304-0.332-0.617-0.579-0.937-0.739c-0.321-0.159-0.715-0.24-1.182-0.24
				c-0.807,0-1.458,0.283-1.953,0.849c-0.494,0.566-0.742,1.355-0.742,2.369c0,0.479,0.063,0.923,0.188,1.335
				c0.124,0.412,0.307,0.77,0.549,1.074c0.241,0.305,0.526,0.539,0.857,0.703c0.33,0.164,0.689,0.246,1.078,0.246
				c0.293,0,0.563-0.04,0.809-0.122c0.247-0.08,0.477-0.199,0.689-0.356c0.212-0.155,0.426-0.358,0.644-0.607v0.16
				c0,0.297,0.072,0.525,0.217,0.685c0.145,0.16,0.328,0.24,0.549,0.24c0.226,0,0.409-0.077,0.552-0.231
				c0.143-0.154,0.213-0.386,0.213-0.694v-7.147c0-0.305-0.066-0.534-0.199-0.69C181.52,478.212,181.332,478.134,181.087,478.134z
				 M180.021,484.975c-0.141,0.306-0.329,0.533-0.563,0.682c-0.236,0.148-0.496,0.223-0.781,0.223c-0.28,0-0.539-0.078-0.777-0.236
				c-0.237-0.154-0.424-0.387-0.561-0.695c-0.136-0.31-0.205-0.683-0.205-1.122c0-0.415,0.063-0.78,0.193-1.096
				c0.128-0.314,0.31-0.556,0.543-0.724c0.233-0.168,0.499-0.252,0.795-0.252c0.285,0,0.547,0.082,0.787,0.245
				c0.239,0.165,0.429,0.402,0.569,0.713c0.141,0.311,0.21,0.682,0.21,1.113C180.232,484.284,180.163,484.667,180.021,484.975z"/>
			<path id="XMLID_954_" style="fill:#1485A8;" d="M188.452,484.054c0.233-0.122,0.35-0.385,0.35-0.793
				c0-0.438-0.113-0.87-0.338-1.294c-0.225-0.423-0.564-0.769-1.019-1.035c-0.453-0.268-0.996-0.399-1.628-0.399
				c-0.487,0-0.93,0.077-1.33,0.233c-0.4,0.156-0.737,0.381-1.01,0.674c-0.272,0.293-0.48,0.643-0.623,1.054
				c-0.143,0.409-0.213,0.853-0.213,1.332c0,1.017,0.289,1.822,0.867,2.415c0.577,0.593,1.387,0.891,2.427,0.891
				c0.456,0,0.858-0.06,1.207-0.178c0.352-0.12,0.641-0.268,0.874-0.448c0.231-0.181,0.404-0.368,0.519-0.565
				c0.115-0.196,0.172-0.366,0.172-0.514c0-0.166-0.052-0.294-0.155-0.386c-0.103-0.09-0.237-0.137-0.403-0.137
				c-0.154,0-0.273,0.036-0.356,0.107c-0.203,0.19-0.366,0.34-0.492,0.451s-0.265,0.216-0.415,0.313
				c-0.15,0.098-0.305,0.167-0.466,0.214c-0.16,0.044-0.337,0.067-0.531,0.067c-0.289,0-0.553-0.07-0.792-0.213
				c-0.239-0.143-0.432-0.355-0.576-0.636c-0.144-0.281-0.219-0.605-0.222-0.974h3.168
				C187.89,484.235,188.219,484.174,188.452,484.054z M184.297,483.316c0.055-0.547,0.212-0.96,0.472-1.238
				c0.259-0.28,0.59-0.418,0.994-0.418c0.423,0,0.764,0.137,1.024,0.411c0.259,0.275,0.409,0.69,0.448,1.245H184.297z"/>
			<path id="XMLID_952_" style="fill:#1485A8;" d="M193.878,483.618c-0.319-0.17-0.729-0.316-1.231-0.44
				c-0.424-0.104-0.756-0.19-0.997-0.261c-0.242-0.07-0.434-0.161-0.576-0.27c-0.143-0.108-0.213-0.247-0.213-0.418
				c0-0.187,0.097-0.342,0.291-0.465c0.194-0.126,0.437-0.188,0.73-0.188c0.286,0,0.511,0.047,0.677,0.142
				c0.166,0.096,0.31,0.223,0.433,0.381c0.151,0.19,0.284,0.331,0.401,0.426c0.116,0.096,0.258,0.144,0.424,0.144
				c0.23,0,0.407-0.061,0.532-0.178c0.124-0.119,0.187-0.271,0.187-0.457c0-0.171-0.058-0.345-0.175-0.523
				c-0.116-0.178-0.286-0.34-0.51-0.485c-0.223-0.147-0.502-0.265-0.837-0.351c-0.333-0.088-0.71-0.131-1.13-0.131
				c-0.535,0-0.99,0.085-1.367,0.259c-0.378,0.172-0.665,0.402-0.859,0.69c-0.194,0.289-0.291,0.597-0.291,0.92
				c0,0.364,0.105,0.671,0.315,0.921c0.21,0.249,0.489,0.45,0.839,0.602c0.351,0.152,0.804,0.298,1.362,0.436
				c0.494,0.12,0.849,0.244,1.066,0.375c0.216,0.131,0.323,0.338,0.323,0.622c0,0.186-0.104,0.352-0.311,0.497
				c-0.208,0.144-0.474,0.216-0.798,0.216c-0.4,0-0.715-0.07-0.947-0.213c-0.232-0.144-0.431-0.357-0.597-0.648
				c-0.082-0.149-0.169-0.267-0.261-0.351c-0.091-0.082-0.221-0.124-0.39-0.124c-0.194,0-0.355,0.063-0.481,0.19
				c-0.128,0.126-0.191,0.278-0.191,0.456c0,0.27,0.099,0.537,0.296,0.805c0.198,0.267,0.505,0.489,0.92,0.667
				c0.415,0.179,0.914,0.268,1.495,0.268c0.609,0,1.127-0.082,1.552-0.246c0.425-0.164,0.747-0.405,0.964-0.725
				c0.218-0.318,0.326-0.701,0.326-1.149c0-0.297-0.081-0.56-0.246-0.792C194.438,483.989,194.196,483.788,193.878,483.618z"/>
			<path id="XMLID_950_" style="fill:#1485A8;" d="M196.486,480.543c-0.238,0-0.431,0.081-0.579,0.243
				c-0.149,0.162-0.222,0.404-0.222,0.724v4.636c0,0.316,0.073,0.56,0.222,0.73c0.148,0.17,0.341,0.255,0.579,0.255
				c0.238,0,0.433-0.083,0.588-0.249c0.154-0.166,0.232-0.412,0.232-0.736v-4.683c0-0.288-0.078-0.515-0.232-0.677
				C196.919,480.624,196.724,480.543,196.486,480.543z"/>
			<path id="XMLID_949_" style="fill:#1485A8;" d="M196.504,478.204c-0.217,0-0.409,0.073-0.573,0.223
				c-0.165,0.149-0.246,0.337-0.246,0.567c0,0.254,0.08,0.449,0.24,0.588c0.16,0.138,0.353,0.208,0.579,0.208
				c0.217,0,0.405-0.071,0.563-0.212c0.158-0.14,0.238-0.335,0.238-0.584c0-0.258-0.081-0.453-0.244-0.588
				C196.9,478.272,196.714,478.204,196.504,478.204z"/>
			<path id="XMLID_945_" style="fill:#1485A8;" d="M203.626,480.543c-0.217,0-0.396,0.077-0.535,0.231
				c-0.139,0.154-0.208,0.372-0.208,0.652v0.221c-0.289-0.376-0.602-0.651-0.938-0.829c-0.337-0.175-0.734-0.264-1.193-0.264
				c-0.384,0-0.736,0.068-1.056,0.204c-0.321,0.138-0.604,0.34-0.849,0.609c-0.245,0.268-0.433,0.599-0.566,0.991
				c-0.133,0.392-0.199,0.831-0.199,1.317c0,0.653,0.108,1.228,0.327,1.728c0.217,0.498,0.529,0.886,0.934,1.163
				c0.406,0.276,0.88,0.415,1.422,0.415c0.45,0,0.839-0.091,1.166-0.272c0.327-0.182,0.614-0.447,0.864-0.797
				c-0.008,0.531-0.02,0.916-0.036,1.155c-0.016,0.24-0.07,0.465-0.164,0.674c-0.093,0.209-0.255,0.373-0.486,0.489
				c-0.232,0.117-0.557,0.176-0.977,0.176c-0.205,0-0.387-0.02-0.545-0.057c-0.159-0.038-0.294-0.095-0.406-0.171
				c-0.112-0.078-0.216-0.171-0.309-0.28c-0.093-0.108-0.183-0.217-0.27-0.323c-0.178-0.21-0.386-0.315-0.624-0.315
				c-0.189,0-0.352,0.062-0.486,0.188c-0.135,0.123-0.202,0.284-0.202,0.482c0,0.262,0.119,0.516,0.356,0.764
				c0.238,0.247,0.576,0.448,1.014,0.605c0.439,0.155,0.938,0.233,1.496,0.233c0.609,0,1.119-0.061,1.528-0.184
				c0.409-0.122,0.741-0.311,0.994-0.564c0.253-0.254,0.438-0.574,0.551-0.961c0.115-0.389,0.173-0.852,0.173-1.39v-4.706
				c0-0.384-0.051-0.678-0.155-0.882C204.146,480.646,203.938,480.543,203.626,480.543z M202.6,484.909
				c-0.151,0.291-0.346,0.508-0.586,0.653c-0.239,0.144-0.493,0.217-0.762,0.217c-0.455,0-0.826-0.168-1.113-0.505
				c-0.287-0.336-0.431-0.834-0.431-1.49c0-0.648,0.139-1.149,0.419-1.501c0.279-0.352,0.649-0.528,1.113-0.528
				c0.475,0,0.858,0.184,1.148,0.553c0.291,0.367,0.437,0.882,0.437,1.542C202.825,484.265,202.749,484.618,202.6,484.909z"/>
			<path id="XMLID_944_" style="fill:#1485A8;" d="M210.978,481.611c-0.165-0.339-0.418-0.602-0.753-0.788
				c-0.337-0.187-0.718-0.279-1.146-0.279c-0.439,0-0.828,0.088-1.166,0.264c-0.338,0.177-0.65,0.452-0.935,0.828v-0.195
				c0-0.193-0.034-0.358-0.104-0.493c-0.069-0.134-0.162-0.234-0.276-0.302c-0.114-0.068-0.244-0.102-0.387-0.102
				c-0.233,0-0.416,0.076-0.552,0.229c-0.134,0.152-0.201,0.383-0.201,0.691v4.683c0,0.316,0.076,0.56,0.226,0.73
				c0.15,0.17,0.342,0.255,0.576,0.255c0.241,0,0.438-0.082,0.59-0.246c0.152-0.164,0.228-0.411,0.228-0.739v-2.03
				c0-0.66,0.04-1.11,0.119-1.353c0.11-0.3,0.284-0.537,0.522-0.71c0.237-0.172,0.5-0.258,0.788-0.258
				c0.444,0,0.74,0.143,0.888,0.425c0.148,0.282,0.223,0.691,0.223,1.226v2.7c0,0.316,0.074,0.56,0.226,0.73
				c0.15,0.17,0.346,0.255,0.587,0.255c0.238,0,0.431-0.083,0.578-0.249c0.149-0.166,0.224-0.412,0.224-0.736v-3.016
				c0-0.357-0.017-0.648-0.048-0.878C211.155,482.024,211.085,481.809,210.978,481.611z"/>
			<path id="XMLID_939_" style="fill:#1485A8;" d="M217.821,484.054c0.233-0.122,0.35-0.385,0.35-0.793
				c0-0.438-0.113-0.87-0.338-1.294c-0.226-0.423-0.565-0.769-1.019-1.035c-0.453-0.268-0.996-0.399-1.628-0.399
				c-0.487,0-0.93,0.077-1.33,0.233c-0.4,0.156-0.736,0.381-1.009,0.674c-0.273,0.293-0.481,0.643-0.624,1.054
				c-0.142,0.409-0.213,0.853-0.213,1.332c0,1.017,0.289,1.822,0.866,2.415c0.578,0.593,1.387,0.891,2.428,0.891
				c0.455,0,0.858-0.06,1.208-0.178c0.351-0.12,0.64-0.268,0.872-0.448c0.232-0.181,0.405-0.368,0.52-0.565
				c0.114-0.196,0.172-0.366,0.172-0.514c0-0.166-0.051-0.294-0.154-0.386c-0.103-0.09-0.238-0.137-0.404-0.137
				c-0.154,0-0.273,0.036-0.356,0.107c-0.201,0.19-0.366,0.34-0.492,0.451c-0.128,0.111-0.266,0.216-0.415,0.313
				c-0.151,0.098-0.307,0.167-0.466,0.214c-0.161,0.044-0.338,0.067-0.532,0.067c-0.288,0-0.553-0.07-0.792-0.213
				c-0.239-0.143-0.431-0.355-0.575-0.636c-0.145-0.281-0.219-0.605-0.223-0.974h3.169
				C217.26,484.235,217.588,484.174,217.821,484.054z M213.666,483.316c0.056-0.547,0.212-0.96,0.471-1.238
				c0.259-0.28,0.591-0.418,0.995-0.418c0.423,0,0.765,0.137,1.024,0.411c0.259,0.275,0.409,0.69,0.448,1.245H213.666z"/>
			<path id="XMLID_936_" style="fill:#1485A8;" d="M224.206,478.134c-0.245,0-0.434,0.085-0.567,0.255
				c-0.132,0.17-0.199,0.421-0.199,0.753v2.393c-0.304-0.332-0.617-0.579-0.938-0.739c-0.32-0.159-0.714-0.24-1.181-0.24
				c-0.808,0-1.458,0.283-1.953,0.849c-0.495,0.566-0.741,1.355-0.741,2.369c0,0.479,0.062,0.923,0.187,1.335
				c0.125,0.412,0.308,0.77,0.549,1.074c0.241,0.305,0.527,0.539,0.857,0.703c0.33,0.164,0.689,0.246,1.077,0.246
				c0.293,0,0.563-0.04,0.81-0.122c0.248-0.08,0.476-0.199,0.689-0.356c0.211-0.155,0.426-0.358,0.643-0.607v0.16
				c0,0.297,0.072,0.525,0.217,0.685c0.145,0.16,0.328,0.24,0.549,0.24c0.226,0,0.41-0.077,0.552-0.231
				c0.143-0.154,0.213-0.386,0.213-0.694v-7.147c0-0.305-0.065-0.534-0.199-0.69C224.641,478.212,224.452,478.134,224.206,478.134z
				 M223.141,484.975c-0.14,0.306-0.328,0.533-0.564,0.682c-0.235,0.148-0.495,0.223-0.781,0.223c-0.281,0-0.54-0.078-0.776-0.236
				c-0.238-0.154-0.425-0.387-0.562-0.695c-0.137-0.31-0.205-0.683-0.205-1.122c0-0.415,0.064-0.78,0.193-1.096
				c0.129-0.314,0.31-0.556,0.543-0.724c0.233-0.168,0.499-0.252,0.795-0.252c0.285,0,0.547,0.082,0.787,0.245
				c0.239,0.165,0.43,0.402,0.57,0.713c0.14,0.311,0.21,0.682,0.21,1.113C223.352,484.284,223.281,484.667,223.141,484.975z"/>
			<path id="XMLID_933_" style="fill:#1485A8;" d="M233.586,480.938c-0.406-0.255-0.877-0.383-1.415-0.383
				c-0.467,0-0.859,0.084-1.175,0.252c-0.317,0.168-0.627,0.411-0.932,0.728v-2.476c0-0.297-0.068-0.524-0.202-0.686
				c-0.135-0.159-0.326-0.239-0.576-0.239c-0.237,0-0.423,0.084-0.555,0.252c-0.133,0.168-0.198,0.416-0.198,0.744v7.075
				c0,0.305,0.068,0.535,0.205,0.692c0.136,0.156,0.319,0.233,0.549,0.233c0.226,0,0.412-0.077,0.558-0.233
				c0.146-0.157,0.22-0.388,0.22-0.692v-0.16c0.178,0.205,0.322,0.36,0.43,0.463c0.109,0.103,0.241,0.203,0.395,0.3
				c0.154,0.098,0.341,0.175,0.561,0.234c0.22,0.06,0.454,0.089,0.704,0.089c0.407,0,0.781-0.082,1.119-0.246
				c0.338-0.164,0.626-0.397,0.864-0.698c0.237-0.3,0.418-0.655,0.543-1.064c0.124-0.41,0.187-0.859,0.187-1.35
				c0-0.665-0.112-1.241-0.336-1.725C234.305,481.564,233.991,481.194,233.586,480.938z M232.796,485.348
				c-0.295,0.354-0.646,0.531-1.053,0.531c-0.479,0-0.866-0.174-1.161-0.521c-0.295-0.346-0.442-0.841-0.442-1.486
				c0-0.439,0.069-0.818,0.207-1.136c0.138-0.319,0.328-0.563,0.57-0.73c0.24-0.168,0.516-0.252,0.825-0.252
				c0.3,0,0.563,0.084,0.789,0.252c0.225,0.168,0.399,0.406,0.521,0.716c0.123,0.308,0.184,0.677,0.184,1.103
				C233.238,484.487,233.09,484.994,232.796,485.348z"/>
			<path id="XMLID_931_" style="fill:#1485A8;" d="M240.529,480.641c-0.112-0.065-0.23-0.098-0.353-0.098
				c-0.171,0-0.302,0.029-0.395,0.09c-0.093,0.058-0.181,0.173-0.264,0.344c-0.083,0.17-0.176,0.406-0.279,0.705l-1.3,3.71
				l-1.371-3.988c-0.091-0.277-0.195-0.489-0.314-0.638c-0.119-0.148-0.295-0.223-0.529-0.223c-0.135,0-0.264,0.035-0.389,0.107
				c-0.124,0.07-0.222,0.166-0.294,0.285c-0.071,0.117-0.107,0.246-0.107,0.385c0,0.131,0.062,0.341,0.184,0.629l1.995,5.022
				l-0.148,0.362c-0.111,0.265-0.208,0.466-0.294,0.601c-0.085,0.139-0.181,0.234-0.288,0.289c-0.107,0.056-0.254,0.084-0.44,0.084
				c-0.075,0-0.163-0.013-0.266-0.036c-0.083-0.024-0.168-0.036-0.256-0.036c-0.221,0-0.388,0.051-0.501,0.151
				c-0.113,0.101-0.169,0.245-0.169,0.431c0,0.272,0.119,0.461,0.356,0.564c0.237,0.103,0.593,0.153,1.068,0.153
				c0.487,0,0.873-0.073,1.161-0.223c0.287-0.147,0.517-0.361,0.691-0.638c0.174-0.277,0.353-0.659,0.535-1.146l2.113-5.531
				c0.051-0.143,0.095-0.283,0.13-0.421c0.037-0.14,0.061-0.246,0.078-0.321c0-0.123-0.032-0.239-0.093-0.35
				C240.729,480.794,240.642,480.707,240.529,480.641z"/>
		</g>
		<g id="XMLID_365_">
			<g id="XMLID_380_">
				<path id="XMLID_928_" style="fill:#1485A8;" d="M262.93,478.129c-0.533,0-0.954,0.068-1.26,0.204
					c-0.308,0.137-0.527,0.354-0.654,0.652c-0.13,0.301-0.191,0.702-0.191,1.211v0.487h-0.387c-0.543,0-0.815,0.191-0.815,0.582
					c0,0.174,0.065,0.316,0.196,0.423c0.132,0.111,0.316,0.164,0.559,0.164h0.446v4.294c0,0.318,0.074,0.563,0.228,0.729
					c0.154,0.17,0.344,0.254,0.573,0.254c0.243,0,0.438-0.084,0.589-0.254c0.155-0.167,0.23-0.411,0.23-0.729v-4.294h0.396
					c0.291,0,0.517-0.035,0.681-0.107c0.166-0.071,0.245-0.24,0.245-0.503c0-0.373-0.307-0.559-0.926-0.559h-0.396v-0.387
					c0-0.321,0.043-0.567,0.122-0.739c0.087-0.172,0.273-0.26,0.565-0.26c0.108,0,0.241,0.014,0.39,0.034
					c0.155,0.026,0.268,0.038,0.33,0.038c0.134,0,0.252-0.055,0.348-0.16c0.102-0.107,0.15-0.235,0.15-0.385
					C264.35,478.359,263.879,478.129,262.93,478.129z"/>
				<path id="XMLID_926_" style="fill:#1485A8;" d="M268.089,480.795c-0.32-0.171-0.648-0.255-0.99-0.255
					c-0.342,0-0.61,0.084-0.818,0.255c-0.202,0.171-0.4,0.421-0.592,0.755c-0.015-0.334-0.08-0.584-0.199-0.755
					c-0.119-0.171-0.313-0.255-0.583-0.255c-0.525,0-0.788,0.364-0.788,1.093v4.514c0,0.323,0.078,0.568,0.226,0.732
					c0.149,0.169,0.34,0.251,0.579,0.251c0.236,0,0.432-0.081,0.586-0.247c0.15-0.163,0.233-0.41,0.233-0.736v-1.355
					c0-0.486,0.014-0.899,0.045-1.238c0.033-0.337,0.09-0.631,0.17-0.878c0.084-0.243,0.201-0.425,0.353-0.554
					c0.149-0.122,0.345-0.186,0.582-0.186c0.172,0,0.374,0.036,0.602,0.107c0.227,0.073,0.371,0.112,0.434,0.112
					c0.157,0,0.304-0.064,0.44-0.194c0.135-0.126,0.204-0.292,0.204-0.488C268.571,481.193,268.411,480.966,268.089,480.795z"/>
				<path id="XMLID_922_" style="fill:#1485A8;" d="M274.176,484.052c0.233-0.122,0.351-0.385,0.351-0.791
					c0-0.44-0.112-0.87-0.339-1.296c-0.222-0.423-0.565-0.77-1.018-1.033c-0.453-0.27-0.997-0.403-1.629-0.403
					c-0.488,0-0.931,0.078-1.329,0.232c-0.402,0.157-0.735,0.381-1.008,0.675c-0.275,0.295-0.484,0.644-0.624,1.055
					c-0.145,0.41-0.218,0.854-0.218,1.333c0,1.017,0.293,1.823,0.87,2.418c0.576,0.593,1.385,0.889,2.429,0.889
					c0.453,0,0.857-0.061,1.207-0.179c0.349-0.117,0.64-0.269,0.874-0.446c0.232-0.182,0.404-0.368,0.522-0.566
					c0.111-0.194,0.167-0.365,0.167-0.512c0-0.167-0.048-0.294-0.152-0.386c-0.104-0.093-0.237-0.139-0.405-0.139
					c-0.152,0-0.271,0.038-0.355,0.108c-0.202,0.189-0.367,0.34-0.493,0.449c-0.128,0.113-0.264,0.218-0.415,0.313
					c-0.15,0.097-0.307,0.17-0.466,0.213c-0.16,0.048-0.336,0.069-0.531,0.069c-0.29,0-0.552-0.07-0.792-0.212
					c-0.24-0.145-0.431-0.357-0.578-0.636c-0.145-0.28-0.216-0.606-0.222-0.974h3.171
					C273.615,484.234,273.942,484.173,274.176,484.052z M270.02,483.313c0.055-0.546,0.213-0.957,0.472-1.236
					c0.26-0.28,0.592-0.418,0.995-0.418c0.426,0,0.764,0.136,1.024,0.412c0.261,0.273,0.407,0.688,0.446,1.242H270.02z"/>
				<path id="XMLID_919_" style="fill:#1485A8;" d="M280.916,484.052c0.232-0.122,0.352-0.385,0.352-0.791
					c0-0.44-0.116-0.87-0.341-1.296c-0.222-0.423-0.564-0.77-1.013-1.033c-0.46-0.27-1.003-0.403-1.634-0.403
					c-0.486,0-0.932,0.078-1.33,0.232c-0.4,0.157-0.736,0.381-1.009,0.675c-0.273,0.295-0.48,0.644-0.622,1.055
					c-0.145,0.41-0.218,0.854-0.218,1.333c0,1.017,0.291,1.823,0.868,2.418c0.58,0.593,1.387,0.889,2.43,0.889
					c0.453,0,0.859-0.061,1.208-0.179c0.348-0.117,0.641-0.269,0.872-0.446c0.234-0.182,0.408-0.368,0.518-0.566
					c0.116-0.194,0.171-0.365,0.171-0.512c0-0.167-0.047-0.294-0.15-0.386c-0.104-0.093-0.238-0.139-0.406-0.139
					c-0.151,0-0.27,0.038-0.355,0.108c-0.202,0.189-0.367,0.34-0.492,0.449c-0.127,0.113-0.264,0.218-0.415,0.313
					c-0.152,0.097-0.307,0.17-0.469,0.213c-0.157,0.048-0.335,0.069-0.527,0.069c-0.291,0-0.556-0.07-0.795-0.212
					c-0.238-0.145-0.431-0.357-0.575-0.636c-0.144-0.28-0.218-0.606-0.222-0.974h3.17
					C280.354,484.234,280.682,484.173,280.916,484.052z M276.762,483.313c0.053-0.546,0.211-0.957,0.47-1.236
					c0.261-0.28,0.592-0.418,0.995-0.418c0.425,0,0.764,0.136,1.026,0.412c0.257,0.273,0.407,0.688,0.446,1.242H276.762z"/>
				<path id="XMLID_390_" style="fill:#1485A8;" d="M286.927,480.938c-0.42-0.257-0.883-0.387-1.379-0.387
					c-0.415,0-0.79,0.09-1.114,0.268c-0.331,0.176-0.648,0.452-0.952,0.827v-0.194c0-0.297-0.071-0.52-0.218-0.678
					c-0.144-0.155-0.329-0.233-0.56-0.233c-0.233,0-0.419,0.078-0.554,0.228c-0.133,0.154-0.199,0.382-0.199,0.691v6.995
					c0,0.354,0.051,0.62,0.145,0.807c0.102,0.183,0.301,0.275,0.607,0.275c0.517,0,0.777-0.358,0.777-1.068v-2.434
					c0.286,0.358,0.586,0.635,0.9,0.817c0.314,0.186,0.704,0.279,1.166,0.279c0.385,0,0.741-0.076,1.079-0.228
					c0.334-0.152,0.622-0.372,0.868-0.653c0.245-0.283,0.44-0.632,0.58-1.05c0.14-0.418,0.21-0.878,0.21-1.376
					c0-0.677-0.122-1.261-0.366-1.758C287.676,481.572,287.346,481.196,286.927,480.938z M286.45,484.941
					c-0.137,0.313-0.32,0.546-0.552,0.704c-0.229,0.153-0.48,0.233-0.748,0.233c-0.454,0-0.828-0.179-1.133-0.536
					c-0.307-0.358-0.46-0.862-0.46-1.504c0-0.687,0.155-1.204,0.462-1.558c0.307-0.35,0.685-0.527,1.131-0.527
					c0.281,0,0.54,0.083,0.77,0.247c0.229,0.163,0.411,0.398,0.542,0.705c0.13,0.306,0.196,0.674,0.196,1.101
					C286.658,484.248,286.589,484.627,286.45,484.941z"/>
				<path id="XMLID_389_" style="fill:#1485A8;" d="M289.9,480.54c-0.238,0-0.428,0.079-0.58,0.244
					c-0.146,0.163-0.222,0.403-0.222,0.722v4.642c0,0.313,0.076,0.555,0.222,0.729c0.152,0.17,0.342,0.254,0.58,0.254
					s0.432-0.082,0.588-0.251c0.154-0.164,0.231-0.409,0.231-0.731v-4.688c0-0.286-0.077-0.512-0.231-0.675
					C290.332,480.62,290.139,480.54,289.9,480.54z"/>
				<path id="XMLID_388_" style="fill:#1485A8;" d="M289.917,478.2c-0.217,0-0.407,0.076-0.571,0.223
					c-0.166,0.149-0.247,0.339-0.247,0.568c0,0.253,0.08,0.447,0.242,0.586c0.158,0.138,0.35,0.209,0.576,0.209
					c0.22,0,0.408-0.071,0.566-0.21c0.157-0.14,0.236-0.335,0.236-0.585c0-0.257-0.082-0.454-0.244-0.591
					C290.314,478.267,290.13,478.2,289.917,478.2z"/>
				<path id="XMLID_387_" style="fill:#1485A8;" d="M297.258,485.57l-1.662-2.614l0.861-0.788c0.438-0.395,0.658-0.714,0.658-0.951
					c0-0.192-0.068-0.354-0.2-0.483c-0.138-0.128-0.306-0.192-0.509-0.192c-0.169,0-0.313,0.043-0.432,0.13
					c-0.121,0.086-0.29,0.251-0.517,0.486l-1.822,1.913v-3.933c0-0.329-0.074-0.581-0.221-0.751
					c-0.147-0.171-0.344-0.257-0.593-0.257c-0.256,0-0.457,0.093-0.596,0.283c-0.136,0.189-0.207,0.462-0.207,0.82v6.914
					c0,0.323,0.073,0.568,0.215,0.732c0.141,0.169,0.339,0.251,0.588,0.251c0.213,0,0.405-0.084,0.566-0.254
					c0.164-0.167,0.247-0.406,0.247-0.719v-1.29l0.88-0.83l1.428,2.353c0.182,0.278,0.329,0.472,0.435,0.58
					c0.107,0.109,0.261,0.16,0.459,0.16c0.226,0,0.412-0.073,0.553-0.222c0.142-0.15,0.214-0.351,0.214-0.609
					c0-0.089-0.029-0.189-0.082-0.288C297.47,485.91,297.379,485.765,297.258,485.57z"/>
				<path id="XMLID_386_" style="fill:#1485A8;" d="M299.45,485.343c-0.251,0-0.459,0.087-0.63,0.262
					c-0.171,0.173-0.257,0.381-0.257,0.622c0,0.287,0.091,0.51,0.269,0.665c0.179,0.159,0.389,0.238,0.633,0.238
					c0.237,0,0.444-0.079,0.624-0.241c0.175-0.157,0.264-0.38,0.264-0.662c0-0.243-0.089-0.454-0.264-0.626
					C299.909,485.43,299.698,485.343,299.45,485.343z"/>
				<path id="XMLID_385_" style="fill:#1485A8;" d="M306.835,484.416c-0.166,0-0.308,0.055-0.422,0.156
					c-0.113,0.104-0.219,0.245-0.318,0.427c-0.177,0.31-0.381,0.538-0.616,0.69c-0.23,0.149-0.509,0.225-0.834,0.225
					c-0.24,0-0.463-0.045-0.666-0.141c-0.201-0.094-0.372-0.229-0.516-0.409c-0.144-0.18-0.252-0.398-0.325-0.652
					c-0.075-0.256-0.114-0.537-0.114-0.842c0-0.646,0.147-1.161,0.44-1.533c0.293-0.375,0.682-0.561,1.158-0.561
					c0.333,0,0.606,0.075,0.82,0.227c0.219,0.147,0.425,0.376,0.623,0.674c0.108,0.158,0.209,0.27,0.299,0.339
					c0.09,0.069,0.201,0.104,0.338,0.104c0.202,0,0.377-0.068,0.524-0.203c0.143-0.135,0.214-0.3,0.214-0.491
					c0-0.192-0.062-0.397-0.192-0.617c-0.127-0.218-0.315-0.424-0.556-0.62c-0.245-0.192-0.54-0.352-0.891-0.474
					c-0.353-0.124-0.736-0.185-1.156-0.185c-0.674,0-1.26,0.139-1.747,0.419c-0.485,0.278-0.858,0.673-1.113,1.183
					c-0.259,0.511-0.387,1.098-0.387,1.765c0,0.982,0.281,1.765,0.841,2.35c0.563,0.582,1.345,0.876,2.349,0.876
					c0.469,0,0.894-0.065,1.269-0.191c0.377-0.126,0.688-0.295,0.935-0.503c0.248-0.207,0.434-0.425,0.553-0.655
					c0.122-0.229,0.183-0.446,0.183-0.647c0-0.169-0.066-0.331-0.198-0.481C307.198,484.494,307.033,484.416,306.835,484.416z"/>
				<path id="XMLID_382_" style="fill:#1485A8;" d="M313.646,481.453c-0.288-0.291-0.628-0.518-1.026-0.675
					c-0.4-0.16-0.847-0.238-1.336-0.238c-0.482,0-0.924,0.078-1.326,0.233c-0.398,0.158-0.737,0.38-1.02,0.669
					c-0.281,0.288-0.498,0.637-0.648,1.045c-0.146,0.408-0.225,0.857-0.225,1.349c0,0.485,0.076,0.93,0.22,1.332
					c0.151,0.401,0.369,0.75,0.657,1.048c0.284,0.292,0.626,0.521,1.016,0.676c0.393,0.159,0.835,0.239,1.326,0.239
					c0.492,0,0.937-0.08,1.336-0.234c0.394-0.157,0.735-0.382,1.02-0.675c0.286-0.291,0.502-0.642,0.656-1.05
					c0.145-0.408,0.222-0.854,0.222-1.336c0-0.488-0.075-0.932-0.221-1.339C314.148,482.096,313.933,481.749,313.646,481.453z
					 M312.455,485.369c-0.29,0.373-0.682,0.558-1.171,0.558c-0.324,0-0.604-0.086-0.846-0.253c-0.24-0.168-0.424-0.409-0.554-0.729
					c-0.129-0.316-0.193-0.685-0.193-1.108c0-0.428,0.066-0.803,0.197-1.124c0.13-0.321,0.314-0.564,0.556-0.728
					c0.242-0.163,0.522-0.245,0.84-0.245c0.489,0,0.881,0.182,1.171,0.555c0.289,0.367,0.436,0.881,0.436,1.542
					C312.891,484.487,312.744,484.999,312.455,485.369z"/>
				<path id="XMLID_381_" style="fill:#1485A8;" d="M323.569,480.814c-0.32-0.173-0.705-0.263-1.146-0.263
					c-0.38,0-0.726,0.081-1.038,0.241c-0.314,0.161-0.607,0.408-0.882,0.738c-0.191-0.326-0.431-0.572-0.725-0.735
					c-0.292-0.162-0.642-0.244-1.048-0.244c-0.395,0-0.748,0.079-1.07,0.241c-0.319,0.156-0.62,0.403-0.903,0.738v-0.153
					c0-0.261-0.073-0.466-0.221-0.616c-0.15-0.145-0.335-0.221-0.558-0.221c-0.226,0-0.412,0.078-0.556,0.238
					c-0.14,0.157-0.21,0.389-0.21,0.694v4.636c0,0.337,0.078,0.592,0.235,0.765c0.156,0.171,0.358,0.258,0.604,0.258
					c0.248,0,0.447-0.087,0.603-0.258c0.149-0.173,0.227-0.428,0.227-0.765v-2.189c0-0.683,0.086-1.206,0.253-1.566
					c0.169-0.369,0.517-0.55,1.048-0.55c0.264,0,0.459,0.071,0.582,0.22c0.121,0.142,0.197,0.33,0.226,0.552
					c0.027,0.226,0.04,0.544,0.04,0.952v2.581c0,0.342,0.078,0.594,0.232,0.768c0.148,0.17,0.35,0.255,0.595,0.255
					c0.254,0,0.454-0.085,0.61-0.255c0.156-0.174,0.23-0.426,0.23-0.768v-2.153c0-0.694,0.063-1.178,0.178-1.452
					c0.109-0.209,0.259-0.383,0.451-0.508c0.191-0.125,0.395-0.191,0.608-0.191c0.264,0,0.463,0.071,0.596,0.215
					c0.128,0.142,0.209,0.318,0.238,0.528c0.029,0.21,0.044,0.486,0.044,0.837v2.725c0,0.337,0.078,0.592,0.234,0.765
					c0.157,0.171,0.356,0.258,0.604,0.258c0.252,0,0.458-0.085,0.611-0.255c0.154-0.174,0.229-0.426,0.229-0.768v-3.163
					c0-0.629-0.068-1.091-0.206-1.386C324.128,481.238,323.889,480.988,323.569,480.814z"/>
			</g>
			<g id="XMLID_366_">
				<path id="XMLID_379_" style="fill:#1485A8;" d="M245.273,483.444c-0.001-0.003-0.001-0.006-0.001-0.011
					C245.272,483.438,245.272,483.441,245.273,483.444z"/>
				<path id="XMLID_378_" style="fill:#1485A8;" d="M245.355,483.961c0.001,0,0.001,0,0.001,0c-0.03-0.146-0.055-0.294-0.073-0.438
					C245.301,483.669,245.326,483.817,245.355,483.961z"/>
				<path id="XMLID_377_" style="fill:#1485A8;" d="M245.891,485.466c-0.003-0.007-0.006-0.014-0.01-0.021
					C245.885,485.453,245.888,485.459,245.891,485.466z"/>
				<path id="XMLID_376_" style="fill:#1485A8;" d="M245.84,485.366c-0.014-0.027-0.027-0.056-0.04-0.083
					C245.812,485.312,245.826,485.338,245.84,485.366z"/>
				<path id="XMLID_375_" style="fill:#1485A8;" d="M245.505,484.541c0.08,0.25,0.175,0.492,0.286,0.724
					c-0.113-0.236-0.206-0.479-0.284-0.724H245.505z"/>
				<path id="XMLID_374_" style="fill:#1485A8;" d="M250.736,476.682l-0.076-0.26c0.299-0.063,0.523-0.329,0.523-0.647
					c0-0.363-0.296-0.659-0.66-0.659c-0.365,0-0.66,0.296-0.66,0.659c0,0.317,0.225,0.584,0.522,0.647l0.084,0.289
					c-1.021,0.141-1.834,0.539-1.834,0.539l0.144,0.44c0.617-0.206,1.153-0.331,1.64-0.383c0.476-0.051,0.833-0.073,1.126-0.073
					c0.313,0,0.545,0.025,0.81,0.069l0.075-0.476C252.43,476.828,251.697,476.603,250.736,476.682z"/>
				<path id="XMLID_373_" style="fill:#1485A8;" d="M245.453,479.189c-0.017,0.023-0.497,0.465-0.876,1.279
					c-0.016-0.025-0.035-0.051-0.056-0.074c-0.114-0.124-0.272-0.188-0.474-0.184c-0.003,0-0.006,0-0.01,0
					c-0.124,0-0.21-0.042-0.266-0.093c0.056-0.07,0.089-0.16,0.089-0.258c0-0.23-0.188-0.419-0.419-0.419
					c-0.23,0-0.417,0.189-0.417,0.419c0,0.231,0.188,0.417,0.417,0.417c0.037,0,0.071-0.005,0.105-0.012
					c0.102,0.113,0.266,0.214,0.504,0.209c0.124-0.002,0.214,0.03,0.273,0.097c0.07,0.075,0.093,0.185,0.1,0.267
					c-0.001,0.002-0.001,0.004-0.002,0.004c-0.272,0.743-0.194,1.668-0.194,1.668l0.661,0.025c0.014-0.336,0.061-0.925,0.232-1.393
					c0.329-0.906,0.741-1.472,0.757-1.496l0.004-0.005c0.024-0.031,0.047-0.06,0.071-0.089l-0.196-0.142L245.453,479.189z"/>
				<path id="XMLID_372_" style="fill:#1485A8;" d="M257.294,477.788c-0.23,0-0.419,0.186-0.419,0.417
					c0,0.037,0.006,0.071,0.016,0.104c-0.115,0.104-0.215,0.267-0.211,0.506c0.002,0.123-0.03,0.213-0.097,0.273
					c-0.053,0.047-0.119,0.071-0.185,0.087c-0.492-0.689-1.098-1.109-1.098-1.109l-0.474,0.509c0.358,0.326,0.725,0.734,1.08,1.244
					c0.246,0.352,0.499,0.806,0.71,1.258l0.64-0.304c0,0-0.292-0.722-0.703-1.369c0.071-0.025,0.143-0.063,0.206-0.12
					c0.126-0.113,0.188-0.272,0.184-0.474c-0.001-0.13,0.041-0.218,0.093-0.275c0.071,0.054,0.16,0.089,0.258,0.089
					c0.232,0,0.418-0.188,0.418-0.419C257.712,477.974,257.525,477.788,257.294,477.788z"/>
				<path id="XMLID_371_" style="fill:#1485A8;" d="M255.633,483.538c-0.88,0.429-2.33,0.996-4.236,1.262
					c-0.749,0.104-1.475,0.143-2.143,0.143c-0.869,0-1.638-0.064-2.227-0.14c-0.672-0.084-1.198-0.188-1.52-0.261
					c0.078,0.245,0.171,0.487,0.284,0.724c0.002,0.006,0.005,0.013,0.008,0.018c0.013,0.027,0.027,0.056,0.04,0.083
					c0.014,0.027,0.027,0.055,0.041,0.079c0.004,0.008,0.007,0.015,0.01,0.021c0.19,0.357,0.417,0.684,0.676,0.968
					c0.899,0.984,1.816,1.139,1.825,1.141l0.015,0.002l0.013,0.005c0.009,0.003,0.821,0.265,2.057,0.265
					c1.215,0,2.409-0.244,3.545-0.728c0.842-0.431,1.639-1.085,2.033-1.668c0.306-0.452,0.526-0.934,0.656-1.434
					c0.069-0.266,0.124-0.692,0.092-1.141C256.555,483.042,256.163,483.28,255.633,483.538z"/>
				<path id="XMLID_367_" style="fill:#1485A8;" d="M252.322,477.656c-0.265-0.044-0.477-0.068-0.777-0.068
					c-0.279,0-0.626,0.022-1.088,0.07c-0.465,0.049-0.982,0.171-1.583,0.373c-0.842,0.282-1.604,0.725-2.204,1.28l-0.02,0.019
					c-0.089,0.081-0.275,0.254-0.488,0.525c-0.025,0.037-0.408,0.578-0.709,1.408c-0.226,0.621-0.216,1.526-0.216,1.537v0.001
					c0,0.212,0.013,0.423,0.036,0.632c0,0.005,0,0.008,0.001,0.011c0.003,0.027,0.007,0.053,0.01,0.08
					c0.019,0.144,0.043,0.291,0.074,0.438c0.438,0.112,3.048,0.721,5.967,0.314c1.829-0.254,3.218-0.795,4.061-1.204
					c0.701-0.34,1.151-0.647,1.325-0.773c-0.173-0.643-0.651-1.65-1.089-2.278C254.367,478.229,253.016,477.77,252.322,477.656z
					 M248.679,482.914c-0.972,0-1.759-0.787-1.759-1.76c0-0.972,0.788-1.76,1.759-1.76c0.973,0,1.761,0.788,1.761,1.76
					C250.439,482.127,249.651,482.914,248.679,482.914z M253.828,481.618c-0.601,0-1.088-0.489-1.088-1.09
					c0-0.603,0.487-1.09,1.088-1.09s1.09,0.487,1.09,1.09C254.918,481.128,254.429,481.618,253.828,481.618z"/>
			</g>
		</g>
	</g>
</g>
</svg>
